<!-- icon666.com - MILLIONS OF FREE VECTOR ICONS --><svg version="1.1" id="Capa_1" xmlns="http://www.w3.org/2000/svg" xmlns:xlink="http://www.w3.org/1999/xlink" x="0px" y="0px" viewBox="0 0 464.15 464.15" style="enable-background:new 0 0 464.15 464.15;" xml:space="preserve"><g><path d="M461.308,121.319c-3.675-6.219-10.349-10.028-17.57-10.028H121.494l-5.365-35.655 c-2.303-15.333-12.706-28.353-27.146-33.987L31.342,19.178C19.513,14.547,6.185,20.421,1.575,32.245 c-4.608,11.829,1.235,25.156,13.066,29.765l56.248,21.933l35.633,236.761c3.21,21.416,21.258,36.957,42.913,36.957h208.64 c12.698,0,22.987-10.289,22.987-22.986c0-12.698-10.289-22.987-22.987-22.987H151.657l-2.313-15.377H365.2 c6.943,0,13.341-3.779,16.686-9.862l79.737-144.91C465.101,135.213,464.981,127.528,461.308,121.319z"></path><path d="M176.402,380.101c-18.347,0-33.23,14.876-33.23,33.223c0,18.348,14.883,33.231,33.23,33.231 c18.348,0,33.224-14.884,33.224-33.231C209.626,394.977,194.75,380.101,176.402,380.101z"></path><path d="M309.295,380.101c-18.347,0-33.222,14.876-33.222,33.223c0,18.348,14.876,33.231,33.222,33.231 c18.355,0,33.231-14.884,33.231-33.231C342.526,394.977,327.65,380.101,309.295,380.101z"></path></g></svg>